<svg width="30" height="33" viewBox="0 0 30 33" xmlns="http://www.w3.org/2000/svg">
<path class="homeIcon" d="M17.1471 0.823301C16.5572 0.293231 15.7921 0 14.9989 0C14.2058 0 13.4407 0.293231 12.8507 0.823301L1.065 11.4133C0.729906 11.7146 0.461923 12.0831 0.278448 12.4947C0.0949717 12.9063 0.000103195 13.3519 0 13.8026V28.9204C0 29.7729 0.338647 30.5905 0.941443 31.1933C1.54424 31.7961 2.3618 32.1347 3.21429 32.1347H7.5C8.35248 32.1347 9.17005 31.7961 9.77284 31.1933C10.3756 30.5905 10.7143 29.7729 10.7143 28.9204V20.349C10.7143 20.0649 10.8272 19.7923 11.0281 19.5914C11.229 19.3905 11.5016 19.2776 11.7857 19.2776H18.2143C18.4984 19.2776 18.771 19.3905 18.9719 19.5914C19.1728 19.7923 19.2857 20.0649 19.2857 20.349V28.9204C19.2857 29.7729 19.6244 30.5905 20.2272 31.1933C20.83 31.7961 21.6475 32.1347 22.5 32.1347H26.7857C27.6382 32.1347 28.4558 31.7961 29.0586 31.1933C29.6614 30.5905 30 29.7729 30 28.9204V13.8026C29.9999 13.3519 29.905 12.9063 29.7216 12.4947C29.5381 12.0831 29.2701 11.7146 28.935 11.4133L17.1493 0.823301H17.1471Z" />
</svg>
